<?xml version="1.0" encoding="utf-8"?>
<!-- Generator: Adobe Illustrator 23.0.1, SVG Export Plug-In . SVG Version: 6.00 Build 0)  -->
<svg version="1.1" id="Calque_1" xmlns="http://www.w3.org/2000/svg" xmlns:xlink="http://www.w3.org/1999/xlink" x="0px" y="0px"
	 viewBox="0 0 322 312" style="enable-background:new 0 0 322 312;" xml:space="preserve">
<style type="text/css">
	.st0{fill:#989898;stroke:#7FFFD4;stroke-width:5;}
	.st1{fill:#7FFFD4;stroke:#989898;stroke-width:2;}
	.st2{fill:#989898;stroke:#7FFFD4;stroke-width:3;}
	.st3{fill:#989898;}
	.st4{font-family:'ArialMT';}
	.st5{font-size:107px;}
	.st6{letter-spacing:3;}
	.st7{fill:none;stroke:#7FFFD4;stroke-width:5;}
</style>
<g>
	<g>
		<path class="st0" d="M154.3,280.8c0,8.5,0,16.6,0,25.1c-1.3,0.1-2.6,0.2-3.9,0.2c-35.7,0-71.5,0-107.2,0C23,306,8.2,295,3.7,276.5
			c-0.8-3.4-1.1-6.9-1.1-10.4C2.5,191.6,2.5,117,2.6,42.3c0-23.7,16.3-40,40.1-40c57.7,0,115.5,0,173.2,0
			c23.6,0,39.9,16.3,39.9,39.8c0,44.5,0,89,0,133.5c0,1.1,0,2.2,0,3.6c-8.4,0-16.6,0-25.4,0c0-1.3,0-2.8,0-4.2
			c0-44.2,0-88.5,0-132.7c0-9.9-4.8-14.7-14.7-14.7c-57.7,0-115.5,0-173.2,0c-9.7,0-14.5,4.8-14.6,14.5c0,74.7,0,149.5,0,224.2
			c0,9.6,4.9,14.5,14.6,14.5c35.7,0,71.5,0,107.2,0C151.2,280.8,152.7,280.8,154.3,280.8z"/>
		<path class="st1" d="M53.6,153.9c-1.5-24.6,20-48.1,46-50.2c-3.3-1.5-6.8-2.5-9.5-4.5c-3-2.2-5.8-4.9-7.7-8c-1.8-3-3-6.6-3.4-10.1
			c-0.4-3.5-0.1-7.3,0.9-10.7c3.3-11.1,14.3-18.3,25.8-17.5c11.7,0.9,21.2,9.8,23.2,21.9c2,12.2-4.8,21.8-20.8,28.8
			c13.2,1.5,24.1,6.8,32.8,16.3c8.8,9.6,13.1,20.9,13.5,34C120.7,153.9,87.3,153.9,53.6,153.9z"/>
		<path class="st2" d="M53.6,162.6c50.5,0,100.7,0,151.2,0c0,8.3,0,16.5,0,24.9c-50.4,0-100.7,0-151.2,0
			C53.6,175.1,53.6,166.8,53.6,162.6z"/>
		<path class="st2" d="M204.8,223.2c-50.5,0-100.7,0-151.2,0c0-8.3,0-16.6,0-25.1c50.4,0,100.7,0,151.2,0
			C204.8,196.5,204.8,204.7,204.8,223.2z"/>
		<path class="st2" d="M204.9,78.5c0,8.3,0,16.4,0,24.7c-8.3,0-16.5,0-24.8,0c0-8.3,0-16.3,0-24.7C188.2,78.5,196.3,78.5,204.9,78.5
			z"/>
		<path class="st2" d="M204.9,118.9c0,8.4,0,16.5,0,24.9c-8.1,0-16.3,0-24.7,0c0-8.2,0-16.4,0-24.9
			C188.4,118.9,196.4,118.9,204.9,118.9z"/>
	</g>
</g>
<text transform="matrix(1 0 0 1 166.0393 289.8895)" class="st3 st4 st5 st6">CV</text>
<text transform="matrix(1 0 0 1 166.0393 289.8895)" class="st7 st4 st5 st6">CV</text>
</svg>
