<?xml version="1.0" encoding="utf-8"?>
<!-- Generator: Adobe Illustrator 23.0.1, SVG Export Plug-In . SVG Version: 6.00 Build 0)  -->
<svg version="1.1" id="Calque_1" xmlns="http://www.w3.org/2000/svg" xmlns:xlink="http://www.w3.org/1999/xlink" x="0px" y="0px"
	 viewBox="0 0 419.9 413.1" style="enable-background:new 0 0 419.9 413.1;" xml:space="preserve">
<style type="text/css">
	.st0{fill:transparent;}
	.st1{fill:#989898;stroke:#7FFFD4;stroke-width:5;}
	.st2{fill:none;}
	.st3{fill:#989898;stroke:#7FFFD4;stroke-width:5;}
	.st4{font-family:'MyriadPro-Regular';letter-spacing: 0.03em}
	.st5{font-size:107px;}
	.st6{fill:#7fffd4;stroke:#989898;stroke-width:2;}
	.st7{fill:#989898;stroke:#7fffd4;stroke-width:3;}
</style>
<g>
	<g>
		<path class="st0" d="M381.5,413.1c-135.3,0-270.5,0-405.8,0c0-135.3,0-270.5,0-405.8c135.3,0,270.5,0,405.8,0
			C381.5,142.6,381.5,277.9,381.5,413.1z M203.4,336.5c-1.7,0-3.1,0-4.6,0c-35.7,0-71.5,0-107.2,0c-9.7,0-14.6-4.9-14.6-14.5
			c0-74.7,0-149.5,0-224.2c0-9.6,4.8-14.5,14.6-14.5c57.7,0,115.5,0,173.2,0c9.9,0,14.7,4.8,14.7,14.7c0,44.2,0,88.5,0,132.7
			c0,1.4,0,2.9,0,4.2c8.8,0,17,0,25.4,0c0-1.4,0-2.5,0-3.6c0-44.5,0-89,0-133.5c0-23.5-16.4-39.7-39.9-39.8c-57.7,0-115.5,0-173.2,0
			c-23.8,0-40.1,16.3-40.1,40c0,74.6,0,149.2,0,223.9c0,3.5,0.3,7,1.1,10.4c4.4,18.4,19.3,29.5,39.5,29.5c35.7,0.1,71.5,0,107.2,0
			c1.3,0,2.6-0.1,3.9-0.2C203.4,353,203.4,345,203.4,336.5z M102.7,209.7c33.7,0,67.1,0,100.9,0c-0.3-13.2-4.6-24.5-13.5-34
			c-8.8-9.5-19.7-14.8-32.8-16.3c16-7,22.8-16.6,20.8-28.8c-2-12.1-11.5-21-23.2-21.9c-11.5-0.8-22.5,6.4-25.8,17.5
			c-1,3.4-1.3,7.2-0.9,10.7c0.4,3.5,1.6,7.2,3.4,10.1c1.9,3.1,4.7,5.8,7.7,8c2.7,2,6.1,3,9.5,4.5C122.6,161.6,101.2,185,102.7,209.7
			z M304.9,336.4c0-25.3,0-50.4,0-75.6c-8.6,0-16.8,0-25.4,0c0,25.2,0,50.3,0,75.7c-16.8,0-33.2,0-49.4,0
			c20.9,20.9,41.7,41.7,61.8,61.8c20.4-20.4,41.2-41.2,61.9-61.9C338,336.4,321.7,336.4,304.9,336.4z M102.7,235.4
			c0,8.2,0,16.5,0,24.9c50.4,0,100.7,0,151.2,0c0-8.4,0-16.6,0-24.9C203.5,235.4,153.3,235.4,102.7,235.4z M253.9,311
			c0-8.5,0-16.7,0-25.1c-50.5,0-100.8,0-151.2,0c0,8.5,0,16.7,0,25.1C153.2,311,203.4,311,253.9,311z M254,134.3
			c-8.5,0-16.7,0-24.8,0c0,8.4,0,16.5,0,24.7c8.4,0,16.5,0,24.8,0C254,150.7,254,142.6,254,134.3z M254,184.7c-8.5,0-16.5,0-24.7,0
			c0,8.4,0,16.7,0,24.9c8.5,0,16.6,0,24.7,0C254,201.2,254,193.1,254,184.7z"/>
		<path class="st1" d="M203.4,336.5c0,8.5,0,16.6,0,25.1c-1.3,0.1-2.6,0.2-3.9,0.2c-35.7,0-71.5,0-107.2,0
			c-20.2,0-35-11.1-39.5-29.5c-0.8-3.4-1.1-6.9-1.1-10.4c-0.1-74.6-0.1-149.2,0-223.9c0-23.7,16.3-40,40.1-40
			c57.7,0,115.5,0,173.2,0c23.6,0,39.9,16.3,39.9,39.8c0,44.5,0,89,0,133.5c0,1.1,0,2.2,0,3.6c-8.4,0-16.6,0-25.4,0
			c0-1.3,0-2.8,0-4.2c0-44.2,0-88.5,0-132.7c0-9.9-4.8-14.7-14.7-14.7c-57.7,0-115.5,0-173.2,0c-9.7,0-14.5,4.8-14.6,14.5
			c0,74.7,0,149.5,0,224.2c0,9.6,4.9,14.5,14.6,14.5c35.7,0,71.5,0,107.2,0C200.3,336.5,201.8,336.5,203.4,336.5z"/>
		<path class="st6" d="M102.7,209.7c-1.5-24.6,20-48.1,46-50.2c-3.3-1.5-6.8-2.5-9.5-4.5c-3-2.2-5.8-4.9-7.7-8c-1.8-3-3-6.6-3.4-10.1
			c-0.4-3.5-0.1-7.3,0.9-10.7c3.3-11.1,14.3-18.3,25.8-17.5c11.7,0.9,21.2,9.8,23.2,21.9c2,12.2-4.8,21.8-20.8,28.8
			c13.2,1.5,24.1,6.8,32.8,16.3c8.8,9.6,13.1,20.9,13.5,34C169.8,209.7,136.4,209.7,102.7,209.7z"/>
		<path class="st7" d="M102.7,218.4c50.5,0,100.7,0,151.2,0c0,8.3,0,16.5,0,24.9c-50.4,0-100.7,0-151.2,0C102.7,230.9,102.7,222.6,102.7,218.4z"
			/>
		<path class="st7" d="M253.9,279c-50.5,0-100.7,0-151.2,0c0-8.3,0-16.6,0-25.1c50.4,0,100.7,0,151.2,0C253.9,252.3,253.9,260.5,253.9,279z"/>
		<path class="st7" d="M254,134.3c0,8.3,0,16.4,0,24.7c-8.3,0-16.5,0-24.8,0c0-8.3,0-16.3,0-24.7C237.3,134.3,245.4,134.3,254,134.3z"/>
		<path class="st7" d="M254,174.7c0,8.4,0,16.5,0,24.9c-8.1,0-16.3,0-24.7,0c0-8.2,0-16.4,0-24.9C237.5,174.7,245.5,174.7,254,174.7z"/>
	</g>
</g>
<rect x="200.6" y="254.3" class="st2" width="190.2" height="180.4"/>
<text transform="matrix(1 0 0 1 215.1018 345.6395)" class="st3 st4 st5">CV</text>
</svg>
