<?xml version="1.0" encoding="utf-8"?>
<!-- Generator: Adobe Illustrator 23.0.1, SVG Export Plug-In . SVG Version: 6.00 Build 0)  -->
<svg version="1.1" id="Calque_1" xmlns="http://www.w3.org/2000/svg" xmlns:xlink="http://www.w3.org/1999/xlink" x="0px" y="0px"
	 viewBox="0 0 1366 768" style="enable-background:new 0 0 1366 768;" xml:space="preserve">
<style type="text/css">
	.st0{fill:#989898;stroke:#7FFFD4;stroke-width:8;stroke-miterlimit:10;}
	.st1{fill:#989898;stroke:#7FFFD4;stroke-width:5;stroke-miterlimit:10;}
	.st2{fill:#989898;stroke:#7FFFD4;stroke-width:3;stroke-miterlimit:10;}
	.st3{fill:#FFFFFF;}
	<!-- .st4{display:none;fill:none;} -->
	.st5{fill:#979998;}
	.st6{font-family:'ArialMT';letter-spacing: 0.05em;}
	.st7{font-size:269px;}
	<!-- .st8{letter-spacing:14;} -->
	.st9{fill:none;stroke:#7FFFD4;stroke-width:9;stroke-miterlimit:10;}
</style>
<g>
	<path class="st0" d="M905.1,112.9c-4.4,1.2-28,5-32.4,6.2C663.9,178.7,455,238.3,246.2,298c-2.3,0.6-3.9,0.7-5.9-0.9
		c-38.3-32.3-76.7-64.4-115-96.6c-0.6-0.5-1.2-1-2.6-2.1c265-31.7,528.9-63.4,793.9-95.1C787.3,276.4,658.7,448.8,529.8,621.5
		c-55.2-77.2-110.2-154-165.4-231.3c174.1-91.4,347.9-182.7,521.8-274C885.8,115.4,905.2,113.1,905.1,112.9z"/>
	<path class="st1" d="M262.9,326.9c176.1-57.5,351.9-115,527.7-172.4c0.1,0.2,0.2,0.4,0.3,0.6c-1.3,0.6-2.5,1.3-3.8,1.9
		C639,225.8,490.8,294.7,342.6,363.4c-3.5,1.6-5.4,3.7-6.6,7.3c-13.8,42-27.7,84-41.6,125.9c-0.3,1-0.7,2-1.8,3.1
		C282.8,442.3,272.9,384.9,262.9,326.9z"/>
	<path class="st2" d="M300.1,521.9c16.7-37.9,33.4-75.8,50.5-114.3c14.1,18,27.8,35.6,41.9,53.6c-30.6,20.5-61.1,40.8-91.6,61.2
		C300.6,522.2,300.4,522.1,300.1,521.9z"/>
	<path class="st0" d="M529.8,621.5c-55.2-77.2-110.2-154-165.4-231.3c174.1-91.4,347.9-182.7,521.8-274c-0.4-0.8,19-3.1,18.9-3.3"/>
	<path class="st0" d="M916.6,103.3C787.3,276.4,658.7,448.8,529.8,621.5"/>
	<path class="st0" d="M905.1,112.9c-4.4,1.2-28,5-32.4,6.2C663.9,178.7,455,238.3,246.2,298c-2.3,0.6-3.9,0.7-5.9-0.9
		c-38.3-32.3-76.7-64.4-115-96.6c-0.6-0.5-1.2-1-2.6-2.1c265-31.7,528.9-63.4,793.9-95.1"/>
	<path class="st1" d="M262.9,326.9c176.1-57.5,351.9-115,527.7-172.4c0.1,0.2,0.2,0.4,0.3,0.6c-1.3,0.6-2.5,1.3-3.8,1.9
		C639,225.8,490.8,294.7,342.6,363.4c-3.5,1.6-5.4,3.7-6.6,7.3c-13.8,42-27.7,84-41.6,125.9c-0.3,1-0.7,2-1.8,3.1
		C282.8,442.3,272.9,384.9,262.9,326.9z"/>
	<path class="st2" d="M300.1,521.9c16.7-37.9,33.4-75.8,50.5-114.3c14.1,18,27.8,35.6,41.9,53.6c-30.6,20.5-61.1,40.8-91.6,61.2
		C300.6,522.2,300.4,522.1,300.1,521.9z"/>
	<path class="st3" d="M289.7,619.4"/>
</g>
<!-- <polygon class="st4" points="278.9,603.5 1260.9,538.5 1260.9,866.6 278.9,866.6 "/> -->
<text transform="matrix(1 0 0 1 346.4807 673.452)" class="st5 st6 st7 st8">Contact</text>
<text transform="matrix(1 0 0 1 346.4807 668.452)" class="st9 st6 st7 st8">Contact</text>
</svg>
