<?xml version="1.0" encoding="utf-8"?>
<!-- Generator: Adobe Illustrator 23.0.1, SVG Export Plug-In . SVG Version: 6.00 Build 0)  -->
<svg version="1.1" id="Calque_1" xmlns="http://www.w3.org/2000/svg" xmlns:xlink="http://www.w3.org/1999/xlink" x="0px" y="0px"
	 viewBox="0 0 572.7 322" style="enable-background:new 0 0 572.7 322;" xml:space="preserve">
<style type="text/css">
	.st0{fill:#989898;stroke:#7FFFD4;stroke-width:3.6897;stroke-miterlimit:10;}
	.st1{fill:#989898;stroke:#7FFFD4;stroke-width:2.3061;stroke-miterlimit:10;}
	.st2{fill:#989898;stroke:#7FFFD4;stroke-width:1.3836;stroke-miterlimit:10;}
	.st3{fill:#FFFFFF;}
	.st4{fill:#979998;}
	.st5{font-family:'ArialMT';}
	.st6{font-size:123.5571px;}
	.st7{letter-spacing:6;}
	.st8{fill:none;stroke:#7FFFD4;stroke-width:4.1339;stroke-miterlimit:10;}
</style>
<g>
	<path class="st0" d="M370.7,14c-2,0.6-12.9,2.3-14.9,2.9c-96.3,27.5-192.6,55-288.9,82.5c-1.1,0.3-1.8,0.3-2.7-0.4
		C46.5,84,28.7,69.2,11.1,54.4c-0.3-0.2-0.6-0.5-1.2-1C132.1,38.8,253.8,24.2,376,9.6c-59.7,80-118.9,181.2-178.4,261
		c-25.5-35.6-50.8-93-76.3-128.7C201.7,99.7,281.8,57.6,362,15.5C361.8,15.1,370.8,14.1,370.7,14z"/>
	<path class="st1" d="M74.5,112.7c81.2-26.5,162.3-53,243.4-79.5c0,0.1,0.1,0.2,0.1,0.3c-0.6,0.3-1.2,0.6-1.8,0.9
		c-68.3,31.7-136.7,63.5-205,95.2c-1.6,0.7-2.5,1.7-3,3.4c-6.4,19.4-12.8,60.7-19.2,80.1c-0.1,0.5-0.3,0.9-0.8,1.4
		C83.7,187.9,79.2,139.4,74.5,112.7z"/>
	<path class="st2" d="M91.7,224.6c7.7-17.5,15.4-57,23.3-74.7c6.5,8.3,12.8,16.4,19.3,24.7c-14.1,9.5-28.2,40.8-42.2,50.2
		C91.9,224.8,91.8,224.7,91.7,224.6z"/>
	<path class="st0" d="M197.6,270.6c-25.5-35.6-50.8-93-76.3-128.7C201.7,99.7,281.8,57.6,362,15.5c-0.2-0.4,8.8-1.4,8.7-1.5"/>
	<path class="st0" d="M376,9.6c-59.7,80-118.9,181.2-178.4,261"/>
	<path class="st0" d="M370.7,14c-2,0.6-12.9,2.3-14.9,2.9c-96.3,27.5-192.6,55-288.9,82.5c-1.1,0.3-1.8,0.3-2.7-0.4
		C46.5,84,28.7,69.2,11.1,54.4c-0.3-0.2-0.6-0.5-1.2-1C132.1,38.8,253.8,24.2,376,9.6"/>
	<path class="st1" d="M74.5,112.7c81.2-26.5,162.3-53,243.4-79.5c0,0.1,0.1,0.2,0.1,0.3c-0.6,0.3-1.2,0.6-1.8,0.9
		c-68.3,31.7-136.7,63.5-205,95.2c-1.6,0.7-2.5,1.7-3,3.4c-6.4,19.4-12.8,60.7-19.2,80.1c-0.1,0.5-0.3,0.9-0.8,1.4
		C83.7,187.9,79.2,139.4,74.5,112.7z"/>
	<path class="st2" d="M91.7,224.6c7.7-17.5,15.4-57,23.3-74.7c6.5,8.3,12.8,16.4,19.3,24.7c-14.1,9.5-28.2,40.8-42.2,50.2
		C91.9,224.8,91.8,224.7,91.7,224.6z"/>
	<path class="st3" d="M87.3,269.1"/>
</g>
<text transform="matrix(1 0 0 1 108.4186 317.9277)" class="st4 st5 st6 st7">Contact</text>
<text transform="matrix(1 0 0 1 108.4186 315.6289)" class="st8 st5 st6 st7">Contact</text>
</svg>
