<?xml version="1.0" encoding="utf-8"?>
<!-- Generator: Adobe Illustrator 23.0.1, SVG Export Plug-In . SVG Version: 6.00 Build 0)  -->
<svg version="1.1"
	 id="svg1" inkscape:version="0.38.1" sodipodi:docbase="/home/danny/flat/scalable/apps" sodipodi:docname="go.svg" sodipodi:version="0.32" xmlns:cc="http://web.resource.org/cc/" xmlns:dc="http://purl.org/dc/elements/1.1/" xmlns:inkscape="http://www.inkscape.org/namespaces/inkscape" xmlns:ns1="http://sozi.baierouge.fr" xmlns:rdf="http://www.w3.org/1999/02/22-rdf-syntax-ns#" xmlns:sodipodi="http://sodipodi.sourceforge.net/DTD/sodipodi-0.dtd" xmlns:svg="http://www.w3.org/2000/svg"
	 xmlns="http://www.w3.org/2000/svg" xmlns:xlink="http://www.w3.org/1999/xlink" x="0px" y="0px" viewBox="0 0 60 60"
	 style="enable-background:new 0 0 60 60;" xml:space="preserve">
<style type="text/css">
	.st0{fill:#979998;}
	.st1{fill:none;stroke:#7FFFD4;stroke-width:0.5;stroke-miterlimit:10;}
	.st2{fill:none;}
	.st3{fill:#979998;stroke:#7FFFD4;stroke-width:0.5;stroke-miterlimit:10;}
	.st4{font-family:'ArialMT';letter-spacing}
	.st5{font-size:13px;}
</style>
<sodipodi:namedview  bordercolor="#666666" borderopacity="1.0" id="base" inkscape:cx="27.476974" inkscape:cy="1.4759922" inkscape:pageopacity="0.0" inkscape:pageshadow="2" inkscape:window-height="693" inkscape:window-width="1016" inkscape:window-x="0" inkscape:window-y="0" inkscape:zoom="6.3330926" pagecolor="#ffffff">
	</sodipodi:namedview>
<g id="XMLID_1_">
	<g>
		<path class="st0" d="M14.7,48.9l0.5-6.2l-3.4-3l-6,1.7l-2-4.2l5.1-3.4l-0.3-4.3l-4.2-3.3L5.8,22l4.8,0.9l2.9-3.4l-1.3-5.7l3.9-1.5
			l3.6,4.3l1.7-0.3l-1,3.1c-15.1,4.5-9.3,28.8,9.4,20.3l3.9,7.1l-3.4,2.4l-3.9-4.8L22,44.7l-3.1,5.5L14.7,48.9z"/>
	</g>
	<g>
		<path class="st1" d="M3.8,37.3l2,4.2l6-1.7l3.4,3L14.7,49l4.2,1.4l3.1-5.5l4.4-0.3l3.9,4.8l3.4-2.4l-3.9-7.1
			c-18.7,8.5-24.5-15.8-9.4-20.3l1-3.1l-1.7,0.3l-3.6-4.3L12.2,14l1.3,5.7l-2.9,3.4L5.8,22l-1.4,4.2l4.2,3.3l0.3,4.3L3.8,37.3z"/>
	</g>
</g>
<rect x="18.3" y="17.6" class="st2" width="41.7" height="20.1"/>
<rect x="9.3" y="25.9" class="st2" width="54.1" height="26.5"/>
<text transform="matrix(1 0 0 1 16.5437 35.278)" class="st3 st4 st5">Projets</text>
</svg>
